<svg width="47.99999999999999" height="47.99999999999999" xmlns="http://www.w3.org/2000/svg">

 <g>
  <title>background</title>
  <rect fill="none" id="canvas_background" height="402" width="582" y="-1" x="-1"/>
 </g>
 <g>
  <title>Layer 1</title>
  <path fill="#9500d5" id="svg_3" d="m24,0.3c-13.1,0 -23.7,10.6 -23.7,23.7s10.6,23.8 23.7,23.8s23.8,-10.7 23.8,-23.8s-10.7,-23.7 -23.8,-23.7zm0,46c-12.3,0 -22.3,-10 -22.3,-22.3s10,-22.2 22.3,-22.2s22.3,10 22.3,22.3s-10,22.2 -22.3,22.2z" class="st1"/>
  <path fill="#9500d5" id="svg_4" d="m11.8,17.4c0,-3.1 2.6,-5.7 5.7,-5.7c1.6,0 3.2,0.7 4.3,2l0.6,0.7l0.6,-0.7c1.1,-1.3 2.7,-2 4.3,-2c3.1,0 5.7,2.6 5.7,5.7l1.5,0c0,-4 -3.2,-7.2 -7.2,-7.2c-1.8,0 -3.5,0.7 -4.8,1.9c-1.3,-1.2 -3.1,-1.9 -4.8,-1.9c-4,0 -7.2,3.2 -7.2,7.2c0,4.6 4.3,8.5 7.9,11l0.8,-1.2c-3.5,-2.3 -7.4,-5.8 -7.4,-9.8z" class="st1"/>
  <path fill="#9500d5" id="svg_5" d="m36.4,25.1c-1,-0.4 -2.2,0 -2.8,0.9l-0.4,0.6l0,-6.3c0,-1.1 -0.8,-2.1 -1.8,-2.3c-0.4,-0.1 -0.7,0 -1.1,0.1l0,-0.3c0,-1.1 -0.8,-2.1 -1.9,-2.3c-0.6,-0.1 -1.3,0.1 -1.8,0.5c-0.4,0.4 -0.7,0.9 -0.8,1.4c-0.3,-0.1 -0.7,-0.2 -1.1,-0.1c-1.1,0.2 -1.9,1.1 -1.9,2.3l0,0.9c-0.3,-0.1 -0.7,-0.1 -1.1,-0.1c-1.1,0.2 -1.9,1.1 -1.9,2.3l0,11.9c0,1.7 1.4,3.1 3.1,3.1l8,0c1.2,0 2.1,-0.9 2.1,-2.1c0,-0.5 0.2,-1 0.4,-1.5l3.8,-5.9c0.4,-0.5 0.4,-1.2 0.3,-1.8c0,-0.6 -0.5,-1.1 -1.1,-1.3zm-0.3,2.4l-3.8,5.9c-0.4,0.7 -0.7,1.5 -0.7,2.3c0,0.3 -0.3,0.6 -0.6,0.6l-8,0c-0.9,0 -1.6,-0.7 -1.6,-1.6l0,-12c0,-0.4 0.3,-0.7 0.6,-0.8c0,0 0.1,0 0.1,0c0.2,0 0.3,0.1 0.5,0.2c0.2,0.1 0.3,0.3 0.3,0.5l0,4.4l1.5,0l0,-4.4l0,-0.1l0,-2.9c0,-0.4 0.3,-0.7 0.6,-0.8c0.2,0 0.4,0 0.6,0.2c0.2,0.1 0.3,0.3 0.3,0.5l0,6.6l1.5,0l0,-6.6l0,-0.1l0,-1.7c0,-0.2 0.1,-0.4 0.3,-0.5c0.2,-0.1 0.4,-0.2 0.6,-0.2c0.3,0.1 0.6,0.4 0.6,0.8l0,2.4l0,0.1l0,5.1l1.5,0l0,-5.1c0,-0.2 0.1,-0.4 0.3,-0.5c0.2,-0.1 0.4,-0.2 0.6,-0.2c0.3,0.1 0.6,0.4 0.6,0.8l0,8.2c0,0.4 0.3,0.8 0.7,0.9c0.4,0.1 0.8,0 1.1,-0.4l1.4,-2.2c0.2,-0.3 0.6,-0.5 0.9,-0.3c0.2,0.1 0.3,0.2 0.4,0.5c-0.1,0 -0.1,0.2 -0.3,0.4z" class="st1"/>
 </g>
</svg>